<svg id="visual" viewBox="0 0 960 100" width="960" height="100" xmlns="http://www.w3.org/2000/svg" xmlns:xlink="http://www.w3.org/1999/xlink" version="1.1"><path d="M0 66L17.8 67.2C35.7 68.3 71.3 70.7 106.8 69.8C142.3 69 177.7 65 213.2 63.3C248.7 61.7 284.3 62.3 320 62.3C355.7 62.3 391.3 61.7 426.8 63.2C462.3 64.7 497.7 68.3 533.2 69C568.7 69.7 604.3 67.3 640 68.2C675.7 69 711.3 73 746.8 73C782.3 73 817.7 69 853.2 67.7C888.7 66.3 924.3 67.7 942.2 68.3L960 69L960 0L942.2 0C924.3 0 888.7 0 853.2 0C817.7 0 782.3 0 746.8 0C711.3 0 675.7 0 640 0C604.3 0 568.7 0 533.2 0C497.7 0 462.3 0 426.8 0C391.3 0 355.7 0 320 0C284.3 0 248.7 0 213.2 0C177.7 0 142.3 0 106.8 0C71.3 0 35.7 0 17.8 0L0 0Z" fill="#9a4d38"></path><path d="M0 57L17.8 55.2C35.7 53.3 71.3 49.7 106.8 49C142.3 48.3 177.7 50.7 213.2 51.2C248.7 51.7 284.3 50.3 320 49.2C355.7 48 391.3 47 426.8 46.3C462.3 45.7 497.7 45.3 533.2 45.2C568.7 45 604.3 45 640 45.2C675.7 45.3 711.3 45.7 746.8 44.8C782.3 44 817.7 42 853.2 40.5C888.7 39 924.3 38 942.2 37.5L960 37L960 0L942.2 0C924.3 0 888.7 0 853.2 0C817.7 0 782.3 0 746.8 0C711.3 0 675.7 0 640 0C604.3 0 568.7 0 533.2 0C497.7 0 462.3 0 426.8 0C391.3 0 355.7 0 320 0C284.3 0 248.7 0 213.2 0C177.7 0 142.3 0 106.8 0C71.3 0 35.7 0 17.8 0L0 0Z" fill="#6f4229"></path><path d="M0 38L17.8 37C35.7 36 71.3 34 106.8 34.2C142.3 34.3 177.7 36.7 213.2 37C248.7 37.3 284.3 35.7 320 33.5C355.7 31.3 391.3 28.7 426.8 28.7C462.3 28.7 497.7 31.3 533.2 32.5C568.7 33.7 604.3 33.3 640 32.5C675.7 31.7 711.3 30.3 746.8 31C782.3 31.7 817.7 34.3 853.2 36.7C888.7 39 924.3 41 942.2 42L960 43L960 0L942.2 0C924.3 0 888.7 0 853.2 0C817.7 0 782.3 0 746.8 0C711.3 0 675.7 0 640 0C604.3 0 568.7 0 533.2 0C497.7 0 462.3 0 426.8 0C391.3 0 355.7 0 320 0C284.3 0 248.7 0 213.2 0C177.7 0 142.3 0 106.8 0C71.3 0 35.7 0 17.8 0L0 0Z" fill="#493321"></path><path d="M0 27L17.8 25.5C35.7 24 71.3 21 106.8 20.5C142.3 20 177.7 22 213.2 21.5C248.7 21 284.3 18 320 16.2C355.7 14.3 391.3 13.7 426.8 13.2C462.3 12.7 497.7 12.3 533.2 14.2C568.7 16 604.3 20 640 22.5C675.7 25 711.3 26 746.8 24.8C782.3 23.7 817.7 20.3 853.2 18C888.7 15.7 924.3 14.3 942.2 13.7L960 13L960 0L942.2 0C924.3 0 888.7 0 853.2 0C817.7 0 782.3 0 746.8 0C711.3 0 675.7 0 640 0C604.3 0 568.7 0 533.2 0C497.7 0 462.3 0 426.8 0C391.3 0 355.7 0 320 0C284.3 0 248.7 0 213.2 0C177.7 0 142.3 0 106.8 0C71.3 0 35.7 0 17.8 0L0 0Z" fill="#28231d"></path></svg>